<svg version="1.1" xmlns="http://www.w3.org/2000/svg" xmlns:xlink="http://www.w3.org/1999/xlink" width="24px" height="24px" viewBox="0,0,256,256"><g fill="#3178c6" fill-rule="nonzero" stroke="none" stroke-width="1" stroke-linecap="butt" stroke-linejoin="miter" stroke-miterlimit="10" stroke-dasharray="" stroke-dashoffset="0" font-family="none" font-weight="none" font-size="none" text-anchor="none" style="mix-blend-mode: normal"><g transform="scale(10.66667,10.66667)"><path d="M1.125,0c-0.623,0 -1.125,0.502 -1.125,1.125v21.75c0,0.623 0.502,1.125 1.125,1.125h21.75c0.623,0 1.125,-0.502 1.125,-1.125v-21.75c0,-0.623 -0.502,-1.125 -1.125,-1.125zM18.488,9.75c0.612,0 1.154,0.037 1.627,0.111c0.44613,0.06684 0.88391,0.18081 1.306,0.34v2.458c-0.20261,-0.14012 -0.41788,-0.26098 -0.643,-0.361c-0.23217,-0.10447 -0.47184,-0.19138 -0.717,-0.26c-0.4644,-0.12941 -0.94392,-0.19666 -1.426,-0.2c-0.3,0 -0.573,0.028 -0.819,0.086c-0.21925,0.04689 -0.42958,0.12859 -0.623,0.242c-0.17,0.104 -0.3,0.229 -0.393,0.374c-0.09354,0.14615 -0.14221,0.3165 -0.14,0.49c0,0.196 0.053,0.373 0.156,0.529c0.104,0.156 0.252,0.304 0.443,0.444c0.191,0.14 0.423,0.276 0.696,0.41c0.273,0.135 0.582,0.274 0.926,0.416c0.47,0.197 0.892,0.407 1.266,0.628c0.374,0.222 0.695,0.473 0.963,0.753c0.268,0.279 0.472,0.598 0.614,0.957c0.142,0.359 0.214,0.776 0.214,1.253c0,0.657 -0.125,1.21 -0.373,1.656c-0.24231,0.43987 -0.59004,0.81269 -1.012,1.085c-0.45481,0.28839 -0.95891,0.49044 -1.487,0.596c-0.566,0.12 -1.163,0.18 -1.79,0.18c-0.6171,0.00271 -1.23311,-0.0522 -1.84,-0.164c-0.52507,-0.09082 -1.03431,-0.25686 -1.512,-0.493v-2.63c0.90378,0.76912 2.05027,1.19414 3.237,1.2c0.333,0 0.624,-0.03 0.872,-0.09c0.249,-0.06 0.456,-0.144 0.623,-0.25c0.166,-0.108 0.29,-0.234 0.373,-0.38c0.18723,-0.34694 0.15844,-0.77058 -0.074,-1.089c-0.14858,-0.19661 -0.3303,-0.36581 -0.537,-0.5c-0.25634,-0.16992 -0.52626,-0.31842 -0.807,-0.444c-0.33276,-0.15196 -0.66849,-0.29733 -1.007,-0.436c-0.918,-0.383 -1.602,-0.852 -2.053,-1.405c-0.45,-0.553 -0.676,-1.222 -0.676,-2.005c0,-0.614 0.123,-1.141 0.369,-1.582c0.246,-0.441 0.58,-0.804 1.004,-1.089c0.44846,-0.29585 0.94634,-0.50889 1.47,-0.629c0.57998,-0.13674 1.17413,-0.20421 1.77,-0.201zM3.375,9.938h9.563v2.166h-3.432v9.646h-2.717v-9.646h-3.414z"></path></g></g></svg>